<mxfile host="www.draw.io" modified="2020-03-23T18:20:16.262Z" agent="Mozilla/5.0 (Macintosh; Intel Mac OS X 10_15_1) AppleWebKit/537.36 (KHTML, like Gecko) Chrome/80.0.3987.149 Safari/537.36" etag="6PaUEJYSuyDIM4aSRIvo" version="12.8.8" type="github" pages="11">
  <diagram id="Exqp0YedXQySDimMVRkW" name="01 - bus">
    <mxGraphModel dx="884" dy="435" grid="1" gridSize="10" guides="1" tooltips="1" connect="1" arrows="1" fold="1" page="1" pageScale="1" pageWidth="1920" pageHeight="1200" math="0" shadow="0">
      <root>
        <mxCell id="0" />
        <mxCell id="1" parent="0" />
        <mxCell id="acZy5QHNFKeMpnjxh3l6-1" value="Posts Service" style="rounded=0;whiteSpace=wrap;html=1;shadow=1;fontSize=21;align=center;fillColor=#f5f5f5;strokeColor=#666666;fontColor=#333333;fontStyle=0" parent="1" vertex="1">
          <mxGeometry x="630" y="180" width="230" height="40" as="geometry" />
        </mxCell>
        <mxCell id="acZy5QHNFKeMpnjxh3l6-20" style="edgeStyle=orthogonalEdgeStyle;rounded=0;orthogonalLoop=1;jettySize=auto;html=1;exitX=1;exitY=0.5;exitDx=0;exitDy=0;" parent="1" source="acZy5QHNFKeMpnjxh3l6-3" edge="1">
          <mxGeometry relative="1" as="geometry">
            <mxPoint x="1160" y="265.1724137931035" as="targetPoint" />
          </mxGeometry>
        </mxCell>
        <mxCell id="acZy5QHNFKeMpnjxh3l6-3" value="" style="rounded=0;whiteSpace=wrap;html=1;shadow=1;fontSize=17;align=left;fillColor=#f5f5f5;strokeColor=#666666;fontColor=#333333;fontStyle=0" parent="1" vertex="1">
          <mxGeometry x="630" y="220" width="230" height="90" as="geometry" />
        </mxCell>
        <mxCell id="acZy5QHNFKeMpnjxh3l6-4" value="Posts Feature" style="whiteSpace=wrap;html=1;rounded=0;shadow=1;fontSize=21;align=center;fillColor=#ffe6cc;strokeColor=#d79b00;fontStyle=0" parent="1" vertex="1">
          <mxGeometry x="650" y="235" width="190" height="55" as="geometry" />
        </mxCell>
        <mxCell id="acZy5QHNFKeMpnjxh3l6-5" value="Comments Service" style="rounded=0;whiteSpace=wrap;html=1;shadow=1;fontSize=21;align=center;fillColor=#f5f5f5;strokeColor=#666666;fontColor=#333333;fontStyle=0" parent="1" vertex="1">
          <mxGeometry x="630" y="330" width="230" height="40" as="geometry" />
        </mxCell>
        <mxCell id="acZy5QHNFKeMpnjxh3l6-6" value="" style="rounded=0;whiteSpace=wrap;html=1;shadow=1;fontSize=17;align=left;fillColor=#f5f5f5;strokeColor=#666666;fontColor=#333333;fontStyle=0" parent="1" vertex="1">
          <mxGeometry x="630" y="370" width="230" height="90" as="geometry" />
        </mxCell>
        <mxCell id="acZy5QHNFKeMpnjxh3l6-7" value="Comments Feature" style="whiteSpace=wrap;html=1;rounded=0;shadow=1;fontSize=21;align=center;fillColor=#ffe6cc;strokeColor=#d79b00;fontStyle=0" parent="1" vertex="1">
          <mxGeometry x="645" y="385" width="200" height="55" as="geometry" />
        </mxCell>
        <mxCell id="acZy5QHNFKeMpnjxh3l6-8" value="Query Service" style="rounded=0;whiteSpace=wrap;html=1;shadow=1;fontSize=21;align=center;fillColor=#f5f5f5;strokeColor=#666666;fontColor=#333333;fontStyle=0" parent="1" vertex="1">
          <mxGeometry x="630" y="480" width="230" height="40" as="geometry" />
        </mxCell>
        <mxCell id="acZy5QHNFKeMpnjxh3l6-9" value="" style="rounded=0;whiteSpace=wrap;html=1;shadow=1;fontSize=17;align=left;fillColor=#f5f5f5;strokeColor=#666666;fontColor=#333333;fontStyle=0" parent="1" vertex="1">
          <mxGeometry x="630" y="520" width="230" height="90" as="geometry" />
        </mxCell>
        <mxCell id="acZy5QHNFKeMpnjxh3l6-10" value="Query Feature" style="whiteSpace=wrap;html=1;rounded=0;shadow=1;fontSize=21;align=center;fillColor=#ffe6cc;strokeColor=#d79b00;fontStyle=0" parent="1" vertex="1">
          <mxGeometry x="645" y="535" width="200" height="55" as="geometry" />
        </mxCell>
        <mxCell id="acZy5QHNFKeMpnjxh3l6-11" value="Event Bus" style="rounded=0;whiteSpace=wrap;html=1;shadow=1;fontSize=21;align=center;fillColor=#f5f5f5;strokeColor=#666666;fontColor=#333333;fontStyle=0" parent="1" vertex="1">
          <mxGeometry x="1160" y="180" width="230" height="40" as="geometry" />
        </mxCell>
        <mxCell id="acZy5QHNFKeMpnjxh3l6-12" value="" style="rounded=0;whiteSpace=wrap;html=1;shadow=1;fontSize=17;align=left;fillColor=#f5f5f5;strokeColor=#666666;fontColor=#333333;" parent="1" vertex="1">
          <mxGeometry x="1160" y="220" width="230" height="390" as="geometry" />
        </mxCell>
        <mxCell id="acZy5QHNFKeMpnjxh3l6-15" value="" style="group" parent="1" vertex="1" connectable="0">
          <mxGeometry x="890" y="320" width="280" height="115" as="geometry" />
        </mxCell>
        <mxCell id="acZy5QHNFKeMpnjxh3l6-16" value="" style="group" parent="1" vertex="1" connectable="0">
          <mxGeometry x="910" y="270" width="200" height="95" as="geometry" />
        </mxCell>
        <mxCell id="acZy5QHNFKeMpnjxh3l6-17" value="&lt;font style=&quot;font-size: 15px;&quot;&gt;{ id: &#39;a1jp5&#39;, title: &#39;new post&#39;}&lt;/font&gt;" style="rounded=0;whiteSpace=wrap;html=1;shadow=0;fontSize=15;fillColor=#f8cecc;strokeColor=#b85450;" parent="acZy5QHNFKeMpnjxh3l6-16" vertex="1">
          <mxGeometry y="60" width="200" height="35" as="geometry" />
        </mxCell>
        <mxCell id="acZy5QHNFKeMpnjxh3l6-18" value="&lt;b&gt;Event&lt;/b&gt;" style="rounded=0;whiteSpace=wrap;html=1;shadow=0;fontSize=21;fillColor=#f8cecc;strokeColor=#b85450;" parent="acZy5QHNFKeMpnjxh3l6-16" vertex="1">
          <mxGeometry width="200" height="25" as="geometry" />
        </mxCell>
        <mxCell id="acZy5QHNFKeMpnjxh3l6-19" value="&lt;span style=&quot;font-size: 15px;&quot;&gt;type: PostCreated&lt;/span&gt;" style="rounded=0;whiteSpace=wrap;html=1;shadow=0;fontSize=15;fillColor=#f8cecc;strokeColor=#b85450;fontStyle=0" parent="acZy5QHNFKeMpnjxh3l6-16" vertex="1">
          <mxGeometry y="25" width="200" height="35" as="geometry" />
        </mxCell>
      </root>
    </mxGraphModel>
  </diagram>
  <diagram id="UwSMTIzfIvUi7WuEi2gy" name="02 - bus">
    <mxGraphModel dx="858" dy="422" grid="1" gridSize="10" guides="1" tooltips="1" connect="1" arrows="1" fold="1" page="1" pageScale="1" pageWidth="1920" pageHeight="1200" math="0" shadow="0">
      <root>
        <mxCell id="191GIR507CpU5c7DXkVK-0" />
        <mxCell id="191GIR507CpU5c7DXkVK-1" parent="191GIR507CpU5c7DXkVK-0" />
        <mxCell id="191GIR507CpU5c7DXkVK-3" value="Event Bus" style="text;html=1;strokeColor=none;fillColor=none;align=center;verticalAlign=middle;whiteSpace=wrap;rounded=0;fontStyle=1;fontSize=24;" parent="191GIR507CpU5c7DXkVK-1" vertex="1">
          <mxGeometry x="710" y="180" width="180" height="20" as="geometry" />
        </mxCell>
        <mxCell id="191GIR507CpU5c7DXkVK-4" value="Many different implementations. RabbitMQ, Kafka, NATS..." style="rounded=0;whiteSpace=wrap;html=1;fontSize=18;" parent="191GIR507CpU5c7DXkVK-1" vertex="1">
          <mxGeometry x="482.5" y="210" width="635" height="50" as="geometry" />
        </mxCell>
        <mxCell id="191GIR507CpU5c7DXkVK-6" value="Receives events, publishes them to listeners" style="rounded=0;whiteSpace=wrap;html=1;fontSize=18;" parent="191GIR507CpU5c7DXkVK-1" vertex="1">
          <mxGeometry x="482.5" y="278" width="635" height="50" as="geometry" />
        </mxCell>
        <mxCell id="191GIR507CpU5c7DXkVK-7" value="Many different subtle features that make async communication way easier or way harder" style="rounded=0;whiteSpace=wrap;html=1;fontSize=18;" parent="191GIR507CpU5c7DXkVK-1" vertex="1">
          <mxGeometry x="482.5" y="345" width="635" height="50" as="geometry" />
        </mxCell>
        <mxCell id="191GIR507CpU5c7DXkVK-8" value="We are going to build our own event bus using Express. It will not implement the vast majority of features a normal bus has." style="rounded=0;whiteSpace=wrap;html=1;fontSize=18;" parent="191GIR507CpU5c7DXkVK-1" vertex="1">
          <mxGeometry x="482.5" y="413" width="635" height="50" as="geometry" />
        </mxCell>
        <mxCell id="063qw9ZxwCHUtHH4w7WC-0" value="Yes, for our next app we will use a production grade, open source event bus" style="rounded=0;whiteSpace=wrap;html=1;fontSize=18;" parent="191GIR507CpU5c7DXkVK-1" vertex="1">
          <mxGeometry x="482.5" y="480" width="635" height="50" as="geometry" />
        </mxCell>
      </root>
    </mxGraphModel>
  </diagram>
  <diagram id="fNM1GS4TpF_Hm7-6x2e6" name="03 - bus">
    <mxGraphModel dx="1073" dy="528" grid="1" gridSize="10" guides="1" tooltips="1" connect="1" arrows="1" fold="1" page="1" pageScale="1" pageWidth="1920" pageHeight="1200" math="0" shadow="0">
      <root>
        <mxCell id="FVuTvPvLPiX6t73eYJf--0" />
        <mxCell id="FVuTvPvLPiX6t73eYJf--1" parent="FVuTvPvLPiX6t73eYJf--0" />
        <mxCell id="aoGmIFXM3mckzC-ICRpF-8" style="edgeStyle=orthogonalEdgeStyle;rounded=0;orthogonalLoop=1;jettySize=auto;html=1;exitX=1;exitY=0.5;exitDx=0;exitDy=0;entryX=0;entryY=0.5;entryDx=0;entryDy=0;" edge="1" parent="FVuTvPvLPiX6t73eYJf--1" source="2ZTW7omi6dBp9okDgVU0-0" target="2ZTW7omi6dBp9okDgVU0-17">
          <mxGeometry relative="1" as="geometry" />
        </mxCell>
        <mxCell id="2ZTW7omi6dBp9okDgVU0-0" value="Posts Service" style="rounded=0;whiteSpace=wrap;html=1;shadow=1;fontSize=21;align=center;fillColor=#f5f5f5;strokeColor=#666666;fontColor=#333333;fontStyle=0" parent="FVuTvPvLPiX6t73eYJf--1" vertex="1">
          <mxGeometry x="630" y="180" width="230" height="40" as="geometry" />
        </mxCell>
        <mxCell id="2ZTW7omi6dBp9okDgVU0-2" value="" style="rounded=0;whiteSpace=wrap;html=1;shadow=1;fontSize=17;align=left;fillColor=#f5f5f5;strokeColor=#666666;fontColor=#333333;fontStyle=0" parent="FVuTvPvLPiX6t73eYJf--1" vertex="1">
          <mxGeometry x="630" y="220" width="230" height="90" as="geometry" />
        </mxCell>
        <mxCell id="2ZTW7omi6dBp9okDgVU0-3" value="POST /events&amp;nbsp;&amp;nbsp;" style="whiteSpace=wrap;html=1;rounded=0;shadow=1;fontSize=21;align=right;fillColor=#dae8fc;strokeColor=#6c8ebf;fontStyle=0" parent="FVuTvPvLPiX6t73eYJf--1" vertex="1">
          <mxGeometry x="700" y="237.5" width="160" height="55" as="geometry" />
        </mxCell>
        <mxCell id="2ZTW7omi6dBp9okDgVU0-4" value="Comments Service" style="rounded=0;whiteSpace=wrap;html=1;shadow=1;fontSize=21;align=center;fillColor=#f5f5f5;strokeColor=#666666;fontColor=#333333;fontStyle=0" parent="FVuTvPvLPiX6t73eYJf--1" vertex="1">
          <mxGeometry x="630" y="330" width="230" height="40" as="geometry" />
        </mxCell>
        <mxCell id="2ZTW7omi6dBp9okDgVU0-5" value="" style="rounded=0;whiteSpace=wrap;html=1;shadow=1;fontSize=17;align=left;fillColor=#f5f5f5;strokeColor=#666666;fontColor=#333333;fontStyle=0" parent="FVuTvPvLPiX6t73eYJf--1" vertex="1">
          <mxGeometry x="630" y="370" width="230" height="90" as="geometry" />
        </mxCell>
        <mxCell id="2ZTW7omi6dBp9okDgVU0-6" value="POST /events&amp;nbsp;&amp;nbsp;" style="whiteSpace=wrap;html=1;rounded=0;shadow=1;fontSize=21;align=right;fillColor=#dae8fc;strokeColor=#6c8ebf;fontStyle=0" parent="FVuTvPvLPiX6t73eYJf--1" vertex="1">
          <mxGeometry x="700" y="387.5" width="160" height="55" as="geometry" />
        </mxCell>
        <mxCell id="2ZTW7omi6dBp9okDgVU0-7" value="Query Service" style="rounded=0;whiteSpace=wrap;html=1;shadow=1;fontSize=21;align=center;fillColor=#f5f5f5;strokeColor=#666666;fontColor=#333333;fontStyle=0" parent="FVuTvPvLPiX6t73eYJf--1" vertex="1">
          <mxGeometry x="630" y="480" width="230" height="40" as="geometry" />
        </mxCell>
        <mxCell id="2ZTW7omi6dBp9okDgVU0-8" value="" style="rounded=0;whiteSpace=wrap;html=1;shadow=1;fontSize=17;align=left;fillColor=#f5f5f5;strokeColor=#666666;fontColor=#333333;fontStyle=0" parent="FVuTvPvLPiX6t73eYJf--1" vertex="1">
          <mxGeometry x="630" y="520" width="230" height="90" as="geometry" />
        </mxCell>
        <mxCell id="2ZTW7omi6dBp9okDgVU0-9" value="POST /events&amp;nbsp;&amp;nbsp;" style="whiteSpace=wrap;html=1;rounded=0;shadow=1;fontSize=21;align=right;fillColor=#dae8fc;strokeColor=#6c8ebf;fontStyle=0" parent="FVuTvPvLPiX6t73eYJf--1" vertex="1">
          <mxGeometry x="700" y="537.5" width="160" height="55" as="geometry" />
        </mxCell>
        <mxCell id="2ZTW7omi6dBp9okDgVU0-10" value="Event Bus" style="rounded=0;whiteSpace=wrap;html=1;shadow=1;fontSize=21;align=center;fillColor=#f5f5f5;strokeColor=#666666;fontColor=#333333;fontStyle=0" parent="FVuTvPvLPiX6t73eYJf--1" vertex="1">
          <mxGeometry x="1160" y="180" width="280" height="40" as="geometry" />
        </mxCell>
        <mxCell id="2ZTW7omi6dBp9okDgVU0-11" value="" style="rounded=0;whiteSpace=wrap;html=1;shadow=1;fontSize=17;align=left;fillColor=#f5f5f5;strokeColor=#666666;fontColor=#333333;" parent="FVuTvPvLPiX6t73eYJf--1" vertex="1">
          <mxGeometry x="1160" y="220" width="280" height="390" as="geometry" />
        </mxCell>
        <mxCell id="2ZTW7omi6dBp9okDgVU0-12" value="" style="group" parent="FVuTvPvLPiX6t73eYJf--1" vertex="1" connectable="0">
          <mxGeometry x="890" y="320" width="280" height="115" as="geometry" />
        </mxCell>
        <mxCell id="dm_30bVJ3tpsDemrJir1-1" style="edgeStyle=orthogonalEdgeStyle;rounded=0;orthogonalLoop=1;jettySize=auto;html=1;exitX=0.5;exitY=1;exitDx=0;exitDy=0;entryX=0.5;entryY=0;entryDx=0;entryDy=0;fontSize=16;" parent="FVuTvPvLPiX6t73eYJf--1" source="2ZTW7omi6dBp9okDgVU0-17" target="2ZTW7omi6dBp9okDgVU0-18" edge="1">
          <mxGeometry relative="1" as="geometry" />
        </mxCell>
        <mxCell id="2ZTW7omi6dBp9okDgVU0-17" value="POST /events&amp;nbsp;&amp;nbsp;" style="whiteSpace=wrap;html=1;rounded=0;shadow=1;fontSize=21;align=center;fillColor=#dae8fc;strokeColor=#6c8ebf;fontStyle=0" parent="FVuTvPvLPiX6t73eYJf--1" vertex="1">
          <mxGeometry x="1160" y="240" width="160" height="55" as="geometry" />
        </mxCell>
        <mxCell id="2ZTW7omi6dBp9okDgVU0-18" value="POST to localhost:&lt;b&gt;4000&lt;/b&gt;/events" style="whiteSpace=wrap;html=1;rounded=0;shadow=1;fontSize=16;align=center;fillColor=#dae8fc;strokeColor=#6c8ebf;fontStyle=0" parent="FVuTvPvLPiX6t73eYJf--1" vertex="1">
          <mxGeometry x="1180" y="350" width="250" height="35" as="geometry" />
        </mxCell>
        <mxCell id="Db_GoOtARKBDPftA3K4Y-0" value="POST to localhost:&lt;b&gt;4001&lt;/b&gt;/events" style="whiteSpace=wrap;html=1;rounded=0;shadow=1;fontSize=16;align=center;fillColor=#dae8fc;strokeColor=#6c8ebf;fontStyle=0" parent="FVuTvPvLPiX6t73eYJf--1" vertex="1">
          <mxGeometry x="1180" y="385" width="250" height="35" as="geometry" />
        </mxCell>
        <mxCell id="Db_GoOtARKBDPftA3K4Y-1" value="POST to localhost:&lt;b&gt;4002&lt;/b&gt;/events" style="whiteSpace=wrap;html=1;rounded=0;shadow=1;fontSize=16;align=center;fillColor=#dae8fc;strokeColor=#6c8ebf;fontStyle=0" parent="FVuTvPvLPiX6t73eYJf--1" vertex="1">
          <mxGeometry x="1180" y="420" width="251" height="35" as="geometry" />
        </mxCell>
        <mxCell id="Db_GoOtARKBDPftA3K4Y-2" value="" style="group" parent="FVuTvPvLPiX6t73eYJf--1" vertex="1" connectable="0">
          <mxGeometry x="940" y="558" width="200" height="95" as="geometry" />
        </mxCell>
        <mxCell id="2ZTW7omi6dBp9okDgVU0-13" value="" style="group" parent="Db_GoOtARKBDPftA3K4Y-2" vertex="1" connectable="0">
          <mxGeometry width="200" height="95" as="geometry" />
        </mxCell>
        <mxCell id="2ZTW7omi6dBp9okDgVU0-14" value="&lt;font style=&quot;font-size: 15px&quot;&gt;{ id: &#39;a1jp5&#39;, content: &#39;comment&#39;, postId: &#39;j5i2p}&lt;/font&gt;" style="rounded=0;whiteSpace=wrap;html=1;shadow=0;fontSize=15;fillColor=#f8cecc;strokeColor=#b85450;" parent="2ZTW7omi6dBp9okDgVU0-13" vertex="1">
          <mxGeometry y="60" width="200" height="35" as="geometry" />
        </mxCell>
        <mxCell id="2ZTW7omi6dBp9okDgVU0-15" value="&lt;b&gt;Event&lt;/b&gt;" style="rounded=0;whiteSpace=wrap;html=1;shadow=0;fontSize=21;fillColor=#f8cecc;strokeColor=#b85450;" parent="2ZTW7omi6dBp9okDgVU0-13" vertex="1">
          <mxGeometry width="200" height="25" as="geometry" />
        </mxCell>
        <mxCell id="2ZTW7omi6dBp9okDgVU0-16" value="&lt;span style=&quot;font-size: 15px&quot;&gt;type: CommentCreated&lt;/span&gt;" style="rounded=0;whiteSpace=wrap;html=1;shadow=0;fontSize=15;fillColor=#f8cecc;strokeColor=#b85450;fontStyle=0" parent="2ZTW7omi6dBp9okDgVU0-13" vertex="1">
          <mxGeometry y="25" width="200" height="35" as="geometry" />
        </mxCell>
        <mxCell id="E2f2-MuZJaCeWxZeTBtm-0" value="" style="group" vertex="1" connectable="0" parent="FVuTvPvLPiX6t73eYJf--1">
          <mxGeometry x="940" y="440" width="200" height="95" as="geometry" />
        </mxCell>
        <mxCell id="E2f2-MuZJaCeWxZeTBtm-1" value="" style="group" vertex="1" connectable="0" parent="E2f2-MuZJaCeWxZeTBtm-0">
          <mxGeometry width="200" height="95" as="geometry" />
        </mxCell>
        <mxCell id="E2f2-MuZJaCeWxZeTBtm-2" value="&lt;font style=&quot;font-size: 15px&quot;&gt;{ id: &#39;a1jp5&#39;, content: &#39;comment&#39;, postId: &#39;j5i2p}&lt;/font&gt;" style="rounded=0;whiteSpace=wrap;html=1;shadow=0;fontSize=15;fillColor=#f8cecc;strokeColor=#b85450;" vertex="1" parent="E2f2-MuZJaCeWxZeTBtm-1">
          <mxGeometry y="60" width="200" height="35" as="geometry" />
        </mxCell>
        <mxCell id="E2f2-MuZJaCeWxZeTBtm-3" value="&lt;b&gt;Event&lt;/b&gt;" style="rounded=0;whiteSpace=wrap;html=1;shadow=0;fontSize=21;fillColor=#f8cecc;strokeColor=#b85450;" vertex="1" parent="E2f2-MuZJaCeWxZeTBtm-1">
          <mxGeometry width="200" height="25" as="geometry" />
        </mxCell>
        <mxCell id="E2f2-MuZJaCeWxZeTBtm-4" value="&lt;span style=&quot;font-size: 15px&quot;&gt;type: PostCreated&lt;/span&gt;" style="rounded=0;whiteSpace=wrap;html=1;shadow=0;fontSize=15;fillColor=#f8cecc;strokeColor=#b85450;fontStyle=0" vertex="1" parent="E2f2-MuZJaCeWxZeTBtm-1">
          <mxGeometry y="25" width="200" height="35" as="geometry" />
        </mxCell>
        <mxCell id="E2f2-MuZJaCeWxZeTBtm-5" style="edgeStyle=orthogonalEdgeStyle;rounded=0;orthogonalLoop=1;jettySize=auto;html=1;exitX=0;exitY=0.5;exitDx=0;exitDy=0;entryX=1;entryY=0.5;entryDx=0;entryDy=0;" edge="1" parent="FVuTvPvLPiX6t73eYJf--1" source="E2f2-MuZJaCeWxZeTBtm-4" target="2ZTW7omi6dBp9okDgVU0-9">
          <mxGeometry relative="1" as="geometry" />
        </mxCell>
        <mxCell id="E2f2-MuZJaCeWxZeTBtm-6" style="edgeStyle=orthogonalEdgeStyle;rounded=0;orthogonalLoop=1;jettySize=auto;html=1;exitX=0;exitY=0.5;exitDx=0;exitDy=0;" edge="1" parent="FVuTvPvLPiX6t73eYJf--1" source="2ZTW7omi6dBp9okDgVU0-16" target="2ZTW7omi6dBp9okDgVU0-9">
          <mxGeometry relative="1" as="geometry" />
        </mxCell>
      </root>
    </mxGraphModel>
  </diagram>
  <diagram id="72ukSxIIG0_9NubZBaEr" name="04 - qs">
    <mxGraphModel dx="910" dy="448" grid="1" gridSize="10" guides="1" tooltips="1" connect="1" arrows="1" fold="1" page="1" pageScale="1" pageWidth="1920" pageHeight="1200" math="0" shadow="0">
      <root>
        <mxCell id="sxn-GkZuYcTiqBQ3qFIA-0" />
        <mxCell id="sxn-GkZuYcTiqBQ3qFIA-1" parent="sxn-GkZuYcTiqBQ3qFIA-0" />
        <mxCell id="jdGG5tblu-pvfTCmuNZJ-0" value="Query Service" style="rounded=0;whiteSpace=wrap;html=1;shadow=1;fontSize=21;align=center;fillColor=#f5f5f5;strokeColor=#666666;fontColor=#333333;fontStyle=0" vertex="1" parent="sxn-GkZuYcTiqBQ3qFIA-1">
          <mxGeometry x="530" y="270" width="340" height="40" as="geometry" />
        </mxCell>
        <mxCell id="jdGG5tblu-pvfTCmuNZJ-1" value="" style="rounded=0;whiteSpace=wrap;html=1;shadow=1;fontSize=17;align=left;fillColor=#f5f5f5;strokeColor=#666666;fontColor=#333333;fontStyle=0" vertex="1" parent="sxn-GkZuYcTiqBQ3qFIA-1">
          <mxGeometry x="530" y="310" width="340" height="90" as="geometry" />
        </mxCell>
        <mxCell id="jdGG5tblu-pvfTCmuNZJ-2" value="POST /events&amp;nbsp;&amp;nbsp;" style="whiteSpace=wrap;html=1;rounded=0;shadow=1;fontSize=21;align=right;fillColor=#dae8fc;strokeColor=#6c8ebf;fontStyle=0" vertex="1" parent="sxn-GkZuYcTiqBQ3qFIA-1">
          <mxGeometry x="710" y="327.5" width="160" height="55" as="geometry" />
        </mxCell>
        <mxCell id="jdGG5tblu-pvfTCmuNZJ-3" value="" style="group" vertex="1" connectable="0" parent="sxn-GkZuYcTiqBQ3qFIA-1">
          <mxGeometry x="950" y="378" width="200" height="95" as="geometry" />
        </mxCell>
        <mxCell id="jdGG5tblu-pvfTCmuNZJ-4" value="" style="group" vertex="1" connectable="0" parent="jdGG5tblu-pvfTCmuNZJ-3">
          <mxGeometry width="200" height="95" as="geometry" />
        </mxCell>
        <mxCell id="jdGG5tblu-pvfTCmuNZJ-5" value="&lt;font style=&quot;font-size: 15px&quot;&gt;{ id: &#39;a1jp5&#39;, content: &#39;comment&#39;, postId: &#39;j5i2p}&lt;/font&gt;" style="rounded=0;whiteSpace=wrap;html=1;shadow=0;fontSize=15;fillColor=#f8cecc;strokeColor=#b85450;" vertex="1" parent="jdGG5tblu-pvfTCmuNZJ-4">
          <mxGeometry y="60" width="200" height="35" as="geometry" />
        </mxCell>
        <mxCell id="jdGG5tblu-pvfTCmuNZJ-6" value="&lt;b&gt;Event&lt;/b&gt;" style="rounded=0;whiteSpace=wrap;html=1;shadow=0;fontSize=21;fillColor=#f8cecc;strokeColor=#b85450;" vertex="1" parent="jdGG5tblu-pvfTCmuNZJ-4">
          <mxGeometry width="200" height="25" as="geometry" />
        </mxCell>
        <mxCell id="jdGG5tblu-pvfTCmuNZJ-7" value="&lt;span style=&quot;font-size: 15px&quot;&gt;type: CommentCreated&lt;/span&gt;" style="rounded=0;whiteSpace=wrap;html=1;shadow=0;fontSize=15;fillColor=#f8cecc;strokeColor=#b85450;fontStyle=0" vertex="1" parent="jdGG5tblu-pvfTCmuNZJ-4">
          <mxGeometry y="25" width="200" height="35" as="geometry" />
        </mxCell>
        <mxCell id="jdGG5tblu-pvfTCmuNZJ-8" value="" style="group" vertex="1" connectable="0" parent="sxn-GkZuYcTiqBQ3qFIA-1">
          <mxGeometry x="950" y="260" width="200" height="95" as="geometry" />
        </mxCell>
        <mxCell id="jdGG5tblu-pvfTCmuNZJ-9" value="" style="group" vertex="1" connectable="0" parent="jdGG5tblu-pvfTCmuNZJ-8">
          <mxGeometry width="200" height="95" as="geometry" />
        </mxCell>
        <mxCell id="jdGG5tblu-pvfTCmuNZJ-10" value="&lt;font style=&quot;font-size: 15px&quot;&gt;{ id: &#39;a1jp5&#39;, content: &#39;comment&#39;, postId: &#39;j5i2p}&lt;/font&gt;" style="rounded=0;whiteSpace=wrap;html=1;shadow=0;fontSize=15;fillColor=#f8cecc;strokeColor=#b85450;" vertex="1" parent="jdGG5tblu-pvfTCmuNZJ-9">
          <mxGeometry y="60" width="200" height="35" as="geometry" />
        </mxCell>
        <mxCell id="jdGG5tblu-pvfTCmuNZJ-11" value="&lt;b&gt;Event&lt;/b&gt;" style="rounded=0;whiteSpace=wrap;html=1;shadow=0;fontSize=21;fillColor=#f8cecc;strokeColor=#b85450;" vertex="1" parent="jdGG5tblu-pvfTCmuNZJ-9">
          <mxGeometry width="200" height="25" as="geometry" />
        </mxCell>
        <mxCell id="jdGG5tblu-pvfTCmuNZJ-12" value="&lt;span style=&quot;font-size: 15px&quot;&gt;type: PostCreated&lt;/span&gt;" style="rounded=0;whiteSpace=wrap;html=1;shadow=0;fontSize=15;fillColor=#f8cecc;strokeColor=#b85450;fontStyle=0" vertex="1" parent="jdGG5tblu-pvfTCmuNZJ-9">
          <mxGeometry y="25" width="200" height="35" as="geometry" />
        </mxCell>
        <mxCell id="jdGG5tblu-pvfTCmuNZJ-13" style="edgeStyle=orthogonalEdgeStyle;rounded=0;orthogonalLoop=1;jettySize=auto;html=1;exitX=0;exitY=0.5;exitDx=0;exitDy=0;entryX=1;entryY=0.5;entryDx=0;entryDy=0;" edge="1" parent="sxn-GkZuYcTiqBQ3qFIA-1" source="jdGG5tblu-pvfTCmuNZJ-12" target="jdGG5tblu-pvfTCmuNZJ-2">
          <mxGeometry relative="1" as="geometry" />
        </mxCell>
        <mxCell id="jdGG5tblu-pvfTCmuNZJ-15" style="edgeStyle=orthogonalEdgeStyle;rounded=0;orthogonalLoop=1;jettySize=auto;html=1;exitX=0;exitY=0.5;exitDx=0;exitDy=0;entryX=1;entryY=0.5;entryDx=0;entryDy=0;" edge="1" parent="sxn-GkZuYcTiqBQ3qFIA-1" source="jdGG5tblu-pvfTCmuNZJ-7" target="jdGG5tblu-pvfTCmuNZJ-2">
          <mxGeometry relative="1" as="geometry" />
        </mxCell>
        <mxCell id="jdGG5tblu-pvfTCmuNZJ-17" style="edgeStyle=orthogonalEdgeStyle;rounded=0;orthogonalLoop=1;jettySize=auto;html=1;exitX=0;exitY=0.5;exitDx=0;exitDy=0;" edge="1" parent="sxn-GkZuYcTiqBQ3qFIA-1" source="jdGG5tblu-pvfTCmuNZJ-16">
          <mxGeometry relative="1" as="geometry">
            <mxPoint x="470" y="355" as="targetPoint" />
          </mxGeometry>
        </mxCell>
        <mxCell id="jdGG5tblu-pvfTCmuNZJ-16" value="&amp;nbsp;GET /posts" style="whiteSpace=wrap;html=1;rounded=0;shadow=1;fontSize=21;align=left;fillColor=#dae8fc;strokeColor=#6c8ebf;fontStyle=0" vertex="1" parent="sxn-GkZuYcTiqBQ3qFIA-1">
          <mxGeometry x="530" y="327.5" width="140" height="55" as="geometry" />
        </mxCell>
        <mxCell id="jdGG5tblu-pvfTCmuNZJ-18" value="Provide full listing of posts + comments" style="text;html=1;strokeColor=none;fillColor=none;align=right;verticalAlign=middle;whiteSpace=wrap;rounded=0;fontSize=16;" vertex="1" parent="sxn-GkZuYcTiqBQ3qFIA-1">
          <mxGeometry x="320" y="345" width="150" height="20" as="geometry" />
        </mxCell>
      </root>
    </mxGraphModel>
  </diagram>
  <diagram id="0saXh1r5xacotS7SeXNC" name="05 - data">
    <mxGraphModel dx="884" dy="435" grid="1" gridSize="10" guides="1" tooltips="1" connect="1" arrows="1" fold="1" page="1" pageScale="1" pageWidth="1920" pageHeight="1200" math="0" shadow="0">
      <root>
        <mxCell id="pRLenAkGF26rCZpuFmwE-0" />
        <mxCell id="pRLenAkGF26rCZpuFmwE-1" parent="pRLenAkGF26rCZpuFmwE-0" />
        <mxCell id="BRlwxRCq7XomtrrtSQj_-0" value="Posts Service" style="rounded=0;whiteSpace=wrap;html=1;shadow=1;fontSize=21;align=center;fillColor=#f5f5f5;strokeColor=#666666;fontColor=#333333;fontStyle=0" vertex="1" parent="pRLenAkGF26rCZpuFmwE-1">
          <mxGeometry x="810" y="170" width="230" height="40" as="geometry" />
        </mxCell>
        <mxCell id="BRlwxRCq7XomtrrtSQj_-1" value="" style="rounded=0;whiteSpace=wrap;html=1;shadow=1;fontSize=17;align=left;fillColor=#f5f5f5;strokeColor=#666666;fontColor=#333333;fontStyle=0" vertex="1" parent="pRLenAkGF26rCZpuFmwE-1">
          <mxGeometry x="810" y="210" width="230" height="90" as="geometry" />
        </mxCell>
        <mxCell id="BRlwxRCq7XomtrrtSQj_-2" value="GET /posts" style="whiteSpace=wrap;html=1;rounded=0;shadow=1;fontSize=21;align=center;fillColor=#dae8fc;strokeColor=#6c8ebf;fontStyle=0" vertex="1" parent="pRLenAkGF26rCZpuFmwE-1">
          <mxGeometry x="810" y="227.5" width="160" height="55" as="geometry" />
        </mxCell>
        <mxCell id="BRlwxRCq7XomtrrtSQj_-3" value="Comments Service" style="rounded=0;whiteSpace=wrap;html=1;shadow=1;fontSize=21;align=center;fillColor=#f5f5f5;strokeColor=#666666;fontColor=#333333;fontStyle=0" vertex="1" parent="pRLenAkGF26rCZpuFmwE-1">
          <mxGeometry x="810" y="320" width="230" height="40" as="geometry" />
        </mxCell>
        <mxCell id="BRlwxRCq7XomtrrtSQj_-4" value="" style="rounded=0;whiteSpace=wrap;html=1;shadow=1;fontSize=17;align=left;fillColor=#f5f5f5;strokeColor=#666666;fontColor=#333333;fontStyle=0" vertex="1" parent="pRLenAkGF26rCZpuFmwE-1">
          <mxGeometry x="810" y="360" width="230" height="90" as="geometry" />
        </mxCell>
        <mxCell id="BRlwxRCq7XomtrrtSQj_-5" value="GET /comments" style="whiteSpace=wrap;html=1;rounded=0;shadow=1;fontSize=21;align=center;fillColor=#dae8fc;strokeColor=#6c8ebf;fontStyle=0" vertex="1" parent="pRLenAkGF26rCZpuFmwE-1">
          <mxGeometry x="810" y="377.5" width="160" height="55" as="geometry" />
        </mxCell>
        <mxCell id="BRlwxRCq7XomtrrtSQj_-6" value="Query Service" style="rounded=0;whiteSpace=wrap;html=1;shadow=1;fontSize=21;align=center;fillColor=#f5f5f5;strokeColor=#666666;fontColor=#333333;fontStyle=0" vertex="1" parent="pRLenAkGF26rCZpuFmwE-1">
          <mxGeometry x="810" y="470" width="230" height="40" as="geometry" />
        </mxCell>
        <mxCell id="BRlwxRCq7XomtrrtSQj_-7" value="" style="rounded=0;whiteSpace=wrap;html=1;shadow=1;fontSize=17;align=left;fillColor=#f5f5f5;strokeColor=#666666;fontColor=#333333;fontStyle=0" vertex="1" parent="pRLenAkGF26rCZpuFmwE-1">
          <mxGeometry x="810" y="510" width="230" height="90" as="geometry" />
        </mxCell>
        <mxCell id="BRlwxRCq7XomtrrtSQj_-8" value="GET /posts" style="whiteSpace=wrap;html=1;rounded=0;shadow=1;fontSize=21;align=center;fillColor=#dae8fc;strokeColor=#6c8ebf;fontStyle=0" vertex="1" parent="pRLenAkGF26rCZpuFmwE-1">
          <mxGeometry x="810" y="527.5" width="160" height="55" as="geometry" />
        </mxCell>
        <mxCell id="BRlwxRCq7XomtrrtSQj_-9" value="React App" style="rounded=0;whiteSpace=wrap;html=1;shadow=1;fontSize=21;align=center;fillColor=#f5f5f5;strokeColor=#666666;fontColor=#333333;fontStyle=0" vertex="1" parent="pRLenAkGF26rCZpuFmwE-1">
          <mxGeometry x="350" y="320" width="230" height="40" as="geometry" />
        </mxCell>
        <mxCell id="BRlwxRCq7XomtrrtSQj_-22" style="edgeStyle=orthogonalEdgeStyle;rounded=0;orthogonalLoop=1;jettySize=auto;html=1;exitX=1;exitY=0.5;exitDx=0;exitDy=0;entryX=0;entryY=0.5;entryDx=0;entryDy=0;fontSize=16;" edge="1" parent="pRLenAkGF26rCZpuFmwE-1" source="BRlwxRCq7XomtrrtSQj_-10" target="BRlwxRCq7XomtrrtSQj_-8">
          <mxGeometry relative="1" as="geometry" />
        </mxCell>
        <mxCell id="BRlwxRCq7XomtrrtSQj_-10" value="" style="rounded=0;whiteSpace=wrap;html=1;shadow=1;fontSize=17;align=left;fillColor=#f5f5f5;strokeColor=#666666;fontColor=#333333;fontStyle=0" vertex="1" parent="pRLenAkGF26rCZpuFmwE-1">
          <mxGeometry x="350" y="360" width="230" height="90" as="geometry" />
        </mxCell>
        <mxCell id="BRlwxRCq7XomtrrtSQj_-12" value="Port 4000" style="rounded=0;whiteSpace=wrap;html=1;fontSize=16;align=center;fillColor=#f8cecc;strokeColor=#b85450;fontStyle=1" vertex="1" parent="pRLenAkGF26rCZpuFmwE-1">
          <mxGeometry x="1040" y="170" width="90" height="40" as="geometry" />
        </mxCell>
        <mxCell id="BRlwxRCq7XomtrrtSQj_-13" value="Port 4001" style="rounded=0;whiteSpace=wrap;html=1;fontSize=16;align=center;fillColor=#f8cecc;strokeColor=#b85450;fontStyle=1" vertex="1" parent="pRLenAkGF26rCZpuFmwE-1">
          <mxGeometry x="1040" y="320" width="90" height="40" as="geometry" />
        </mxCell>
        <mxCell id="BRlwxRCq7XomtrrtSQj_-14" value="Port 4002" style="rounded=0;whiteSpace=wrap;html=1;fontSize=16;align=center;fillColor=#f8cecc;strokeColor=#b85450;fontStyle=1" vertex="1" parent="pRLenAkGF26rCZpuFmwE-1">
          <mxGeometry x="1040" y="470" width="90" height="40" as="geometry" />
        </mxCell>
      </root>
    </mxGraphModel>
  </diagram>
  <diagram id="ocfHJP5bt_ZFcifDqVoM" name="11 - filter">
    <mxGraphModel dx="858" dy="422" grid="1" gridSize="10" guides="1" tooltips="1" connect="1" arrows="1" fold="1" page="1" pageScale="1" pageWidth="1920" pageHeight="1200" math="0" shadow="0">
      <root>
        <mxCell id="xJxcjjLHE2ZbyP7sn9md-0" />
        <mxCell id="xJxcjjLHE2ZbyP7sn9md-1" parent="xJxcjjLHE2ZbyP7sn9md-0" />
        <mxCell id="B4JuXIYinTyIonhkGYWW-0" value="All comments should be approved/rejected before being shown to other users" style="rounded=0;whiteSpace=wrap;html=1;fontSize=28;align=center;fillColor=#dae8fc;strokeColor=#6c8ebf;" vertex="1" parent="xJxcjjLHE2ZbyP7sn9md-1">
          <mxGeometry x="490" y="330" width="590" height="100" as="geometry" />
        </mxCell>
        <mxCell id="B4JuXIYinTyIonhkGYWW-1" value="Feature Request" style="text;html=1;strokeColor=none;fillColor=none;align=center;verticalAlign=middle;whiteSpace=wrap;rounded=0;fontSize=18;" vertex="1" parent="xJxcjjLHE2ZbyP7sn9md-1">
          <mxGeometry x="680" y="440" width="210" height="20" as="geometry" />
        </mxCell>
      </root>
    </mxGraphModel>
  </diagram>
  <diagram name="12 - filter" id="id-MC0imXzeycO0Vb1iB">
    <mxGraphModel dx="858" dy="422" grid="1" gridSize="10" guides="1" tooltips="1" connect="1" arrows="1" fold="1" page="1" pageScale="1" pageWidth="1920" pageHeight="1200" math="0" shadow="0">
      <root>
        <mxCell id="AJKubGV0aU0Vh5lC2r2s-0" />
        <mxCell id="AJKubGV0aU0Vh5lC2r2s-1" parent="AJKubGV0aU0Vh5lC2r2s-0" />
        <mxCell id="AJKubGV0aU0Vh5lC2r2s-2" value="Reject any comment that has the word &#39;orange&#39; in it." style="rounded=0;whiteSpace=wrap;html=1;fontSize=28;align=center;fillColor=#dae8fc;strokeColor=#6c8ebf;" vertex="1" parent="AJKubGV0aU0Vh5lC2r2s-1">
          <mxGeometry x="490" y="330" width="540" height="100" as="geometry" />
        </mxCell>
        <mxCell id="AJKubGV0aU0Vh5lC2r2s-3" value="&lt;i&gt;Simplified feature&lt;/i&gt;" style="text;html=1;strokeColor=none;fillColor=none;align=center;verticalAlign=middle;whiteSpace=wrap;rounded=0;fontSize=18;fontStyle=1" vertex="1" parent="AJKubGV0aU0Vh5lC2r2s-1">
          <mxGeometry x="655" y="450" width="210" height="20" as="geometry" />
        </mxCell>
      </root>
    </mxGraphModel>
  </diagram>
  <diagram id="e607_B7noWNbfg9PVR-X" name="09 - filter">
    <mxGraphModel dx="1502" dy="739" grid="1" gridSize="10" guides="1" tooltips="1" connect="1" arrows="1" fold="1" page="1" pageScale="1" pageWidth="1920" pageHeight="1200" math="0" shadow="0">
      <root>
        <mxCell id="_a09laMJ5emZhVtguphP-0" />
        <mxCell id="_a09laMJ5emZhVtguphP-1" parent="_a09laMJ5emZhVtguphP-0" />
        <mxCell id="1AUmuGn1JMjl8ZPiTN5f-1" value="Posts Service" style="rounded=0;whiteSpace=wrap;html=1;shadow=1;fontSize=21;align=center;fillColor=#f5f5f5;strokeColor=#666666;fontColor=#333333;fontStyle=0" vertex="1" parent="_a09laMJ5emZhVtguphP-1">
          <mxGeometry x="630" y="180" width="230" height="40" as="geometry" />
        </mxCell>
        <mxCell id="1AUmuGn1JMjl8ZPiTN5f-2" value="" style="rounded=0;whiteSpace=wrap;html=1;shadow=1;fontSize=17;align=left;fillColor=#f5f5f5;strokeColor=#666666;fontColor=#333333;fontStyle=0" vertex="1" parent="_a09laMJ5emZhVtguphP-1">
          <mxGeometry x="630" y="220" width="230" height="90" as="geometry" />
        </mxCell>
        <mxCell id="1AUmuGn1JMjl8ZPiTN5f-3" value="POST /events&amp;nbsp;&amp;nbsp;" style="whiteSpace=wrap;html=1;rounded=0;shadow=1;fontSize=21;align=right;fillColor=#dae8fc;strokeColor=#6c8ebf;fontStyle=0" vertex="1" parent="_a09laMJ5emZhVtguphP-1">
          <mxGeometry x="700" y="237.5" width="160" height="55" as="geometry" />
        </mxCell>
        <mxCell id="1AUmuGn1JMjl8ZPiTN5f-4" value="Comments Service" style="rounded=0;whiteSpace=wrap;html=1;shadow=1;fontSize=21;align=center;fillColor=#f5f5f5;strokeColor=#666666;fontColor=#333333;fontStyle=0" vertex="1" parent="_a09laMJ5emZhVtguphP-1">
          <mxGeometry x="630" y="330" width="230" height="40" as="geometry" />
        </mxCell>
        <mxCell id="1AUmuGn1JMjl8ZPiTN5f-5" value="" style="rounded=0;whiteSpace=wrap;html=1;shadow=1;fontSize=17;align=left;fillColor=#f5f5f5;strokeColor=#666666;fontColor=#333333;fontStyle=0" vertex="1" parent="_a09laMJ5emZhVtguphP-1">
          <mxGeometry x="630" y="370" width="230" height="90" as="geometry" />
        </mxCell>
        <mxCell id="1AUmuGn1JMjl8ZPiTN5f-6" value="POST /events&amp;nbsp;&amp;nbsp;" style="whiteSpace=wrap;html=1;rounded=0;shadow=1;fontSize=21;align=right;fillColor=#dae8fc;strokeColor=#6c8ebf;fontStyle=0" vertex="1" parent="_a09laMJ5emZhVtguphP-1">
          <mxGeometry x="700" y="387.5" width="160" height="55" as="geometry" />
        </mxCell>
        <mxCell id="1AUmuGn1JMjl8ZPiTN5f-7" value="Query Service" style="rounded=0;whiteSpace=wrap;html=1;shadow=1;fontSize=21;align=center;fillColor=#f5f5f5;strokeColor=#666666;fontColor=#333333;fontStyle=0" vertex="1" parent="_a09laMJ5emZhVtguphP-1">
          <mxGeometry x="630" y="480" width="230" height="40" as="geometry" />
        </mxCell>
        <mxCell id="1AUmuGn1JMjl8ZPiTN5f-8" value="" style="rounded=0;whiteSpace=wrap;html=1;shadow=1;fontSize=17;align=left;fillColor=#f5f5f5;strokeColor=#666666;fontColor=#333333;fontStyle=0" vertex="1" parent="_a09laMJ5emZhVtguphP-1">
          <mxGeometry x="630" y="520" width="230" height="90" as="geometry" />
        </mxCell>
        <mxCell id="1AUmuGn1JMjl8ZPiTN5f-9" value="POST /events&amp;nbsp;&amp;nbsp;" style="whiteSpace=wrap;html=1;rounded=0;shadow=1;fontSize=21;align=right;fillColor=#dae8fc;strokeColor=#6c8ebf;fontStyle=0" vertex="1" parent="_a09laMJ5emZhVtguphP-1">
          <mxGeometry x="700" y="537.5" width="160" height="55" as="geometry" />
        </mxCell>
        <mxCell id="1AUmuGn1JMjl8ZPiTN5f-10" value="Event Bus" style="rounded=0;whiteSpace=wrap;html=1;shadow=1;fontSize=21;align=center;fillColor=#f5f5f5;strokeColor=#666666;fontColor=#333333;fontStyle=0" vertex="1" parent="_a09laMJ5emZhVtguphP-1">
          <mxGeometry x="1160" y="180" width="280" height="40" as="geometry" />
        </mxCell>
        <mxCell id="1AUmuGn1JMjl8ZPiTN5f-11" value="" style="rounded=0;whiteSpace=wrap;html=1;shadow=1;fontSize=17;align=left;fillColor=#f5f5f5;strokeColor=#666666;fontColor=#333333;" vertex="1" parent="_a09laMJ5emZhVtguphP-1">
          <mxGeometry x="1160" y="220" width="280" height="540" as="geometry" />
        </mxCell>
        <mxCell id="1AUmuGn1JMjl8ZPiTN5f-12" value="" style="group" vertex="1" connectable="0" parent="_a09laMJ5emZhVtguphP-1">
          <mxGeometry x="890" y="320" width="280" height="115" as="geometry" />
        </mxCell>
        <mxCell id="1AUmuGn1JMjl8ZPiTN5f-13" style="edgeStyle=orthogonalEdgeStyle;rounded=0;orthogonalLoop=1;jettySize=auto;html=1;exitX=0.5;exitY=1;exitDx=0;exitDy=0;entryX=0.5;entryY=0;entryDx=0;entryDy=0;fontSize=16;" edge="1" parent="_a09laMJ5emZhVtguphP-1" source="1AUmuGn1JMjl8ZPiTN5f-14" target="1AUmuGn1JMjl8ZPiTN5f-15">
          <mxGeometry relative="1" as="geometry" />
        </mxCell>
        <mxCell id="1AUmuGn1JMjl8ZPiTN5f-14" value="POST /events&amp;nbsp;&amp;nbsp;" style="whiteSpace=wrap;html=1;rounded=0;shadow=1;fontSize=21;align=center;fillColor=#dae8fc;strokeColor=#6c8ebf;fontStyle=0" vertex="1" parent="_a09laMJ5emZhVtguphP-1">
          <mxGeometry x="1160" y="240" width="160" height="55" as="geometry" />
        </mxCell>
        <mxCell id="1AUmuGn1JMjl8ZPiTN5f-15" value="POST to localhost:&lt;b&gt;4000&lt;/b&gt;/events" style="whiteSpace=wrap;html=1;rounded=0;shadow=1;fontSize=16;align=center;fillColor=#dae8fc;strokeColor=#6c8ebf;fontStyle=0" vertex="1" parent="_a09laMJ5emZhVtguphP-1">
          <mxGeometry x="1180" y="350" width="250" height="35" as="geometry" />
        </mxCell>
        <mxCell id="1AUmuGn1JMjl8ZPiTN5f-16" value="POST to localhost:&lt;b&gt;4001&lt;/b&gt;/events" style="whiteSpace=wrap;html=1;rounded=0;shadow=1;fontSize=16;align=center;fillColor=#dae8fc;strokeColor=#6c8ebf;fontStyle=0" vertex="1" parent="_a09laMJ5emZhVtguphP-1">
          <mxGeometry x="1180" y="385" width="250" height="35" as="geometry" />
        </mxCell>
        <mxCell id="1AUmuGn1JMjl8ZPiTN5f-17" value="POST to localhost:&lt;b&gt;4002&lt;/b&gt;/events" style="whiteSpace=wrap;html=1;rounded=0;shadow=1;fontSize=16;align=center;fillColor=#dae8fc;strokeColor=#6c8ebf;fontStyle=0" vertex="1" parent="_a09laMJ5emZhVtguphP-1">
          <mxGeometry x="1180" y="420" width="251" height="35" as="geometry" />
        </mxCell>
        <mxCell id="1AUmuGn1JMjl8ZPiTN5f-18" value="" style="group" vertex="1" connectable="0" parent="_a09laMJ5emZhVtguphP-1">
          <mxGeometry x="1560" y="538" width="200" height="95" as="geometry" />
        </mxCell>
        <mxCell id="1AUmuGn1JMjl8ZPiTN5f-19" value="" style="group" vertex="1" connectable="0" parent="1AUmuGn1JMjl8ZPiTN5f-18">
          <mxGeometry width="200" height="95" as="geometry" />
        </mxCell>
        <mxCell id="1AUmuGn1JMjl8ZPiTN5f-20" value="&lt;font style=&quot;font-size: 15px&quot;&gt;{ id: &#39;a1jp5&#39;, content: &#39;comment&#39;, postId: &#39;j5i2p}&lt;/font&gt;" style="rounded=0;whiteSpace=wrap;html=1;shadow=0;fontSize=15;fillColor=#f8cecc;strokeColor=#b85450;" vertex="1" parent="1AUmuGn1JMjl8ZPiTN5f-19">
          <mxGeometry y="60" width="200" height="35" as="geometry" />
        </mxCell>
        <mxCell id="1AUmuGn1JMjl8ZPiTN5f-21" value="&lt;b&gt;Event&lt;/b&gt;" style="rounded=0;whiteSpace=wrap;html=1;shadow=0;fontSize=21;fillColor=#f8cecc;strokeColor=#b85450;" vertex="1" parent="1AUmuGn1JMjl8ZPiTN5f-19">
          <mxGeometry width="200" height="25" as="geometry" />
        </mxCell>
        <mxCell id="1AUmuGn1JMjl8ZPiTN5f-22" value="&lt;span style=&quot;font-size: 15px&quot;&gt;type: CommentCreated&lt;/span&gt;" style="rounded=0;whiteSpace=wrap;html=1;shadow=0;fontSize=15;fillColor=#f8cecc;strokeColor=#b85450;fontStyle=0" vertex="1" parent="1AUmuGn1JMjl8ZPiTN5f-19">
          <mxGeometry y="25" width="200" height="35" as="geometry" />
        </mxCell>
        <mxCell id="1AUmuGn1JMjl8ZPiTN5f-23" value="" style="group" vertex="1" connectable="0" parent="_a09laMJ5emZhVtguphP-1">
          <mxGeometry x="1560" y="420" width="200" height="95" as="geometry" />
        </mxCell>
        <mxCell id="1AUmuGn1JMjl8ZPiTN5f-24" value="" style="group" vertex="1" connectable="0" parent="1AUmuGn1JMjl8ZPiTN5f-23">
          <mxGeometry width="200" height="95" as="geometry" />
        </mxCell>
        <mxCell id="1AUmuGn1JMjl8ZPiTN5f-25" value="&lt;font style=&quot;font-size: 15px&quot;&gt;{ id: &#39;a1jp5&#39;, content: &#39;comment&#39;, postId: &#39;j5i2p}&lt;/font&gt;" style="rounded=0;whiteSpace=wrap;html=1;shadow=0;fontSize=15;fillColor=#f8cecc;strokeColor=#b85450;" vertex="1" parent="1AUmuGn1JMjl8ZPiTN5f-24">
          <mxGeometry y="60" width="200" height="35" as="geometry" />
        </mxCell>
        <mxCell id="1AUmuGn1JMjl8ZPiTN5f-26" value="&lt;b&gt;Event&lt;/b&gt;" style="rounded=0;whiteSpace=wrap;html=1;shadow=0;fontSize=21;fillColor=#f8cecc;strokeColor=#b85450;" vertex="1" parent="1AUmuGn1JMjl8ZPiTN5f-24">
          <mxGeometry width="200" height="25" as="geometry" />
        </mxCell>
        <mxCell id="1AUmuGn1JMjl8ZPiTN5f-27" value="&lt;span style=&quot;font-size: 15px&quot;&gt;type: PostCreated&lt;/span&gt;" style="rounded=0;whiteSpace=wrap;html=1;shadow=0;fontSize=15;fillColor=#f8cecc;strokeColor=#b85450;fontStyle=0" vertex="1" parent="1AUmuGn1JMjl8ZPiTN5f-24">
          <mxGeometry y="25" width="200" height="35" as="geometry" />
        </mxCell>
        <mxCell id="1AUmuGn1JMjl8ZPiTN5f-30" value="Filter Service" style="rounded=0;whiteSpace=wrap;html=1;shadow=1;fontSize=21;align=center;fillColor=#f5f5f5;strokeColor=#666666;fontColor=#333333;fontStyle=0" vertex="1" parent="_a09laMJ5emZhVtguphP-1">
          <mxGeometry x="630" y="630" width="230" height="40" as="geometry" />
        </mxCell>
        <mxCell id="1AUmuGn1JMjl8ZPiTN5f-31" value="" style="rounded=0;whiteSpace=wrap;html=1;shadow=1;fontSize=17;align=left;fillColor=#f5f5f5;strokeColor=#666666;fontColor=#333333;fontStyle=0" vertex="1" parent="_a09laMJ5emZhVtguphP-1">
          <mxGeometry x="630" y="670" width="230" height="90" as="geometry" />
        </mxCell>
        <mxCell id="1AUmuGn1JMjl8ZPiTN5f-32" value="POST /events&amp;nbsp;&amp;nbsp;" style="whiteSpace=wrap;html=1;rounded=0;shadow=1;fontSize=21;align=right;fillColor=#dae8fc;strokeColor=#6c8ebf;fontStyle=0" vertex="1" parent="_a09laMJ5emZhVtguphP-1">
          <mxGeometry x="700" y="687.5" width="160" height="55" as="geometry" />
        </mxCell>
        <mxCell id="1AUmuGn1JMjl8ZPiTN5f-33" value="POST to localhost:&lt;b&gt;4002&lt;/b&gt;/events" style="whiteSpace=wrap;html=1;rounded=0;shadow=1;fontSize=16;align=center;fillColor=#dae8fc;strokeColor=#6c8ebf;fontStyle=0" vertex="1" parent="_a09laMJ5emZhVtguphP-1">
          <mxGeometry x="1180" y="455" width="251" height="35" as="geometry" />
        </mxCell>
      </root>
    </mxGraphModel>
  </diagram>
  <diagram id="AAz-pWd8h2AiQk9J4IeY" name="06 - issues">
    <mxGraphModel dx="1036" dy="510" grid="1" gridSize="10" guides="1" tooltips="1" connect="1" arrows="1" fold="1" page="1" pageScale="1" pageWidth="1920" pageHeight="1200" math="0" shadow="0">
      <root>
        <mxCell id="9Wn9SCCPoTQPPgEm06KC-0" />
        <mxCell id="9Wn9SCCPoTQPPgEm06KC-1" parent="9Wn9SCCPoTQPPgEm06KC-0" />
        <mxCell id="9Wn9SCCPoTQPPgEm06KC-5" style="edgeStyle=orthogonalEdgeStyle;rounded=0;orthogonalLoop=1;jettySize=auto;html=1;exitX=0.5;exitY=1;exitDx=0;exitDy=0;fontSize=28;" edge="1" parent="9Wn9SCCPoTQPPgEm06KC-1" source="9Wn9SCCPoTQPPgEm06KC-3" target="9Wn9SCCPoTQPPgEm06KC-4">
          <mxGeometry relative="1" as="geometry" />
        </mxCell>
        <mxCell id="9Wn9SCCPoTQPPgEm06KC-3" value="Our app is perfect!" style="rounded=0;whiteSpace=wrap;html=1;fontSize=28;align=center;fillColor=#dae8fc;strokeColor=#6c8ebf;" vertex="1" parent="9Wn9SCCPoTQPPgEm06KC-1">
          <mxGeometry x="500" y="220" width="540" height="100" as="geometry" />
        </mxCell>
        <mxCell id="9Wn9SCCPoTQPPgEm06KC-4" value="Well, maybe not quite..." style="rounded=0;whiteSpace=wrap;html=1;fontSize=28;align=center;fillColor=#dae8fc;strokeColor=#6c8ebf;" vertex="1" parent="9Wn9SCCPoTQPPgEm06KC-1">
          <mxGeometry x="500" y="390" width="540" height="100" as="geometry" />
        </mxCell>
      </root>
    </mxGraphModel>
  </diagram>
  <diagram id="IMKRUWdm4FnnU2j8KnE0" name="07 - issues">
    <mxGraphModel dx="939" dy="462" grid="1" gridSize="10" guides="1" tooltips="1" connect="1" arrows="1" fold="1" page="1" pageScale="1" pageWidth="1920" pageHeight="1200" math="0" shadow="0">
      <root>
        <mxCell id="PPqGVtj6fF4C2JR5LCrg-0" />
        <mxCell id="PPqGVtj6fF4C2JR5LCrg-1" parent="PPqGVtj6fF4C2JR5LCrg-0" />
        <mxCell id="PPqGVtj6fF4C2JR5LCrg-2" value="Finding Issues" style="text;html=1;strokeColor=none;fillColor=none;align=center;verticalAlign=middle;whiteSpace=wrap;rounded=0;fontSize=28;fontStyle=1" vertex="1" parent="PPqGVtj6fF4C2JR5LCrg-1">
          <mxGeometry x="560" y="170" width="280" height="30" as="geometry" />
        </mxCell>
        <mxCell id="PPqGVtj6fF4C2JR5LCrg-6" value="Consider events being emitted out of order.&amp;nbsp; What happens?" style="rounded=0;whiteSpace=wrap;html=1;fontSize=27;align=center;fillColor=#dae8fc;strokeColor=#6c8ebf;" vertex="1" parent="PPqGVtj6fF4C2JR5LCrg-1">
          <mxGeometry x="495" y="350" width="410" height="116" as="geometry" />
        </mxCell>
        <mxCell id="PPqGVtj6fF4C2JR5LCrg-12" value="" style="edgeStyle=orthogonalEdgeStyle;rounded=0;orthogonalLoop=1;jettySize=auto;html=1;fontSize=27;" edge="1" parent="PPqGVtj6fF4C2JR5LCrg-1" source="PPqGVtj6fF4C2JR5LCrg-7" target="PPqGVtj6fF4C2JR5LCrg-10">
          <mxGeometry relative="1" as="geometry" />
        </mxCell>
        <mxCell id="PPqGVtj6fF4C2JR5LCrg-7" value="1" style="rounded=0;whiteSpace=wrap;html=1;fontSize=28;align=center;fillColor=#dae8fc;strokeColor=#6c8ebf;fontStyle=1" vertex="1" parent="PPqGVtj6fF4C2JR5LCrg-1">
          <mxGeometry x="400" y="238" width="60" height="60" as="geometry" />
        </mxCell>
        <mxCell id="PPqGVtj6fF4C2JR5LCrg-9" style="edgeStyle=orthogonalEdgeStyle;rounded=0;orthogonalLoop=1;jettySize=auto;html=1;exitX=1;exitY=0.5;exitDx=0;exitDy=0;entryX=0;entryY=0.5;entryDx=0;entryDy=0;fontSize=27;" edge="1" parent="PPqGVtj6fF4C2JR5LCrg-1" source="PPqGVtj6fF4C2JR5LCrg-8" target="PPqGVtj6fF4C2JR5LCrg-6">
          <mxGeometry relative="1" as="geometry" />
        </mxCell>
        <mxCell id="PPqGVtj6fF4C2JR5LCrg-8" value="2" style="rounded=0;whiteSpace=wrap;html=1;fontSize=28;align=center;fillColor=#dae8fc;strokeColor=#6c8ebf;fontStyle=1" vertex="1" parent="PPqGVtj6fF4C2JR5LCrg-1">
          <mxGeometry x="400" y="378" width="60" height="60" as="geometry" />
        </mxCell>
        <mxCell id="PPqGVtj6fF4C2JR5LCrg-10" value="Consider every combination of services being up and down.&amp;nbsp; What happens?" style="rounded=0;whiteSpace=wrap;html=1;fontSize=27;align=center;fillColor=#dae8fc;strokeColor=#6c8ebf;" vertex="1" parent="PPqGVtj6fF4C2JR5LCrg-1">
          <mxGeometry x="495" y="210" width="410" height="116" as="geometry" />
        </mxCell>
        <mxCell id="PD-qepxOVSU39zTHK3Kk-0" value="Consider even a bit of lag in sending/receiving events.&amp;nbsp; What happens?" style="rounded=0;whiteSpace=wrap;html=1;fontSize=27;align=center;fillColor=#dae8fc;strokeColor=#6c8ebf;" vertex="1" parent="PPqGVtj6fF4C2JR5LCrg-1">
          <mxGeometry x="495" y="484" width="410" height="116" as="geometry" />
        </mxCell>
        <mxCell id="PD-qepxOVSU39zTHK3Kk-1" style="edgeStyle=orthogonalEdgeStyle;rounded=0;orthogonalLoop=1;jettySize=auto;html=1;exitX=1;exitY=0.5;exitDx=0;exitDy=0;entryX=0;entryY=0.5;entryDx=0;entryDy=0;fontSize=27;" edge="1" parent="PPqGVtj6fF4C2JR5LCrg-1" source="PD-qepxOVSU39zTHK3Kk-2" target="PD-qepxOVSU39zTHK3Kk-0">
          <mxGeometry relative="1" as="geometry" />
        </mxCell>
        <mxCell id="PD-qepxOVSU39zTHK3Kk-2" value="3" style="rounded=0;whiteSpace=wrap;html=1;fontSize=28;align=center;fillColor=#dae8fc;strokeColor=#6c8ebf;fontStyle=1" vertex="1" parent="PPqGVtj6fF4C2JR5LCrg-1">
          <mxGeometry x="400" y="512" width="60" height="60" as="geometry" />
        </mxCell>
      </root>
    </mxGraphModel>
  </diagram>
  <diagram id="Ps5MYZWzwofaFn57LrO1" name="08 - updown">
    <mxGraphModel dx="1036" dy="510" grid="1" gridSize="10" guides="1" tooltips="1" connect="1" arrows="1" fold="1" page="1" pageScale="1" pageWidth="1920" pageHeight="1200" math="0" shadow="0">
      <root>
        <mxCell id="yVIniye5_wfXDYpnEdnF-0" />
        <mxCell id="yVIniye5_wfXDYpnEdnF-1" parent="yVIniye5_wfXDYpnEdnF-0" />
        <mxCell id="U0I4Y9HCIqqXa3ABBWWh-1" value="Posts Service" style="rounded=0;whiteSpace=wrap;html=1;shadow=1;fontSize=21;align=center;fillColor=#f5f5f5;strokeColor=#666666;fontColor=#333333;fontStyle=0" vertex="1" parent="yVIniye5_wfXDYpnEdnF-1">
          <mxGeometry x="630" y="180" width="230" height="40" as="geometry" />
        </mxCell>
        <mxCell id="U0I4Y9HCIqqXa3ABBWWh-2" value="" style="rounded=0;whiteSpace=wrap;html=1;shadow=1;fontSize=17;align=left;fillColor=#f5f5f5;strokeColor=#666666;fontColor=#333333;fontStyle=0" vertex="1" parent="yVIniye5_wfXDYpnEdnF-1">
          <mxGeometry x="630" y="220" width="230" height="90" as="geometry" />
        </mxCell>
        <mxCell id="U0I4Y9HCIqqXa3ABBWWh-4" value="Comments Service" style="rounded=0;whiteSpace=wrap;html=1;shadow=1;fontSize=21;align=center;fillColor=#f5f5f5;strokeColor=#666666;fontColor=#333333;fontStyle=0" vertex="1" parent="yVIniye5_wfXDYpnEdnF-1">
          <mxGeometry x="630" y="330" width="230" height="40" as="geometry" />
        </mxCell>
        <mxCell id="U0I4Y9HCIqqXa3ABBWWh-5" value="" style="rounded=0;whiteSpace=wrap;html=1;shadow=1;fontSize=17;align=left;fillColor=#f5f5f5;strokeColor=#666666;fontColor=#333333;fontStyle=0" vertex="1" parent="yVIniye5_wfXDYpnEdnF-1">
          <mxGeometry x="630" y="370" width="230" height="90" as="geometry" />
        </mxCell>
        <mxCell id="U0I4Y9HCIqqXa3ABBWWh-7" value="Query Service" style="rounded=0;whiteSpace=wrap;html=1;shadow=1;fontSize=21;align=center;fillColor=#f5f5f5;strokeColor=#666666;fontColor=#333333;fontStyle=0" vertex="1" parent="yVIniye5_wfXDYpnEdnF-1">
          <mxGeometry x="630" y="480" width="230" height="40" as="geometry" />
        </mxCell>
        <mxCell id="U0I4Y9HCIqqXa3ABBWWh-8" value="" style="rounded=0;whiteSpace=wrap;html=1;shadow=1;fontSize=17;align=left;fillColor=#f5f5f5;strokeColor=#666666;fontColor=#333333;fontStyle=0" vertex="1" parent="yVIniye5_wfXDYpnEdnF-1">
          <mxGeometry x="630" y="520" width="230" height="90" as="geometry" />
        </mxCell>
        <mxCell id="U0I4Y9HCIqqXa3ABBWWh-10" value="Event Bus" style="rounded=0;whiteSpace=wrap;html=1;shadow=1;fontSize=21;align=center;fillColor=#f5f5f5;strokeColor=#666666;fontColor=#333333;fontStyle=0" vertex="1" parent="yVIniye5_wfXDYpnEdnF-1">
          <mxGeometry x="1160" y="180" width="280" height="40" as="geometry" />
        </mxCell>
        <mxCell id="U0I4Y9HCIqqXa3ABBWWh-11" value="" style="rounded=0;whiteSpace=wrap;html=1;shadow=1;fontSize=17;align=left;fillColor=#f5f5f5;strokeColor=#666666;fontColor=#333333;" vertex="1" parent="yVIniye5_wfXDYpnEdnF-1">
          <mxGeometry x="1160" y="220" width="280" height="390" as="geometry" />
        </mxCell>
        <mxCell id="U0I4Y9HCIqqXa3ABBWWh-12" value="" style="group" vertex="1" connectable="0" parent="yVIniye5_wfXDYpnEdnF-1">
          <mxGeometry x="890" y="320" width="280" height="115" as="geometry" />
        </mxCell>
        <mxCell id="U0I4Y9HCIqqXa3ABBWWh-13" style="edgeStyle=orthogonalEdgeStyle;rounded=0;orthogonalLoop=1;jettySize=auto;html=1;exitX=0.5;exitY=1;exitDx=0;exitDy=0;entryX=0.5;entryY=0;entryDx=0;entryDy=0;fontSize=16;" edge="1" parent="yVIniye5_wfXDYpnEdnF-1" source="U0I4Y9HCIqqXa3ABBWWh-14" target="U0I4Y9HCIqqXa3ABBWWh-15">
          <mxGeometry relative="1" as="geometry" />
        </mxCell>
        <mxCell id="U0I4Y9HCIqqXa3ABBWWh-14" value="POST /events&amp;nbsp;&amp;nbsp;" style="whiteSpace=wrap;html=1;rounded=0;shadow=1;fontSize=21;align=center;fillColor=#dae8fc;strokeColor=#6c8ebf;fontStyle=0" vertex="1" parent="yVIniye5_wfXDYpnEdnF-1">
          <mxGeometry x="1160" y="240" width="160" height="55" as="geometry" />
        </mxCell>
        <mxCell id="U0I4Y9HCIqqXa3ABBWWh-15" value="POST to localhost:&lt;b&gt;4000&lt;/b&gt;/events" style="whiteSpace=wrap;html=1;rounded=0;shadow=1;fontSize=16;align=center;fillColor=#dae8fc;strokeColor=#6c8ebf;fontStyle=0" vertex="1" parent="yVIniye5_wfXDYpnEdnF-1">
          <mxGeometry x="1180" y="350" width="250" height="35" as="geometry" />
        </mxCell>
        <mxCell id="U0I4Y9HCIqqXa3ABBWWh-16" value="POST to localhost:&lt;b&gt;4001&lt;/b&gt;/events" style="whiteSpace=wrap;html=1;rounded=0;shadow=1;fontSize=16;align=center;fillColor=#dae8fc;strokeColor=#6c8ebf;fontStyle=0" vertex="1" parent="yVIniye5_wfXDYpnEdnF-1">
          <mxGeometry x="1180" y="385" width="250" height="35" as="geometry" />
        </mxCell>
        <mxCell id="U0I4Y9HCIqqXa3ABBWWh-17" value="POST to localhost:&lt;b&gt;4002&lt;/b&gt;/events" style="whiteSpace=wrap;html=1;rounded=0;shadow=1;fontSize=16;align=center;fillColor=#dae8fc;strokeColor=#6c8ebf;fontStyle=0" vertex="1" parent="yVIniye5_wfXDYpnEdnF-1">
          <mxGeometry x="1180" y="420" width="251" height="35" as="geometry" />
        </mxCell>
        <mxCell id="U0I4Y9HCIqqXa3ABBWWh-23" value="" style="group" vertex="1" connectable="0" parent="yVIniye5_wfXDYpnEdnF-1">
          <mxGeometry x="930" y="520" width="200" height="95" as="geometry" />
        </mxCell>
        <mxCell id="U0I4Y9HCIqqXa3ABBWWh-24" value="" style="group" vertex="1" connectable="0" parent="U0I4Y9HCIqqXa3ABBWWh-23">
          <mxGeometry width="200" height="95" as="geometry" />
        </mxCell>
        <mxCell id="U0I4Y9HCIqqXa3ABBWWh-25" value="&lt;font style=&quot;font-size: 15px&quot;&gt;{ id: &#39;a1jp5&#39;, title: &#39;post&#39;}&lt;/font&gt;" style="rounded=0;whiteSpace=wrap;html=1;shadow=0;fontSize=15;fillColor=#f8cecc;strokeColor=#b85450;" vertex="1" parent="U0I4Y9HCIqqXa3ABBWWh-24">
          <mxGeometry y="60" width="200" height="35" as="geometry" />
        </mxCell>
        <mxCell id="U0I4Y9HCIqqXa3ABBWWh-26" value="&lt;b&gt;Event&lt;/b&gt;" style="rounded=0;whiteSpace=wrap;html=1;shadow=0;fontSize=21;fillColor=#f8cecc;strokeColor=#b85450;" vertex="1" parent="U0I4Y9HCIqqXa3ABBWWh-24">
          <mxGeometry width="200" height="25" as="geometry" />
        </mxCell>
        <mxCell id="U0I4Y9HCIqqXa3ABBWWh-27" value="&lt;span style=&quot;font-size: 15px&quot;&gt;type: PostCreated&lt;/span&gt;" style="rounded=0;whiteSpace=wrap;html=1;shadow=0;fontSize=15;fillColor=#f8cecc;strokeColor=#b85450;fontStyle=0" vertex="1" parent="U0I4Y9HCIqqXa3ABBWWh-24">
          <mxGeometry y="25" width="200" height="35" as="geometry" />
        </mxCell>
        <mxCell id="U0I4Y9HCIqqXa3ABBWWh-31" style="edgeStyle=orthogonalEdgeStyle;rounded=0;orthogonalLoop=1;jettySize=auto;html=1;exitX=1;exitY=0.5;exitDx=0;exitDy=0;fontSize=18;" edge="1" parent="yVIniye5_wfXDYpnEdnF-1" source="U0I4Y9HCIqqXa3ABBWWh-30" target="U0I4Y9HCIqqXa3ABBWWh-2">
          <mxGeometry relative="1" as="geometry" />
        </mxCell>
        <mxCell id="U0I4Y9HCIqqXa3ABBWWh-30" value="User tries to create a post" style="rounded=0;whiteSpace=wrap;html=1;fontSize=18;align=center;fillColor=#fff2cc;strokeColor=#d6b656;fontStyle=1" vertex="1" parent="yVIniye5_wfXDYpnEdnF-1">
          <mxGeometry x="480" y="235" width="120" height="60" as="geometry" />
        </mxCell>
        <mxCell id="U0I4Y9HCIqqXa3ABBWWh-32" value="posts = []" style="rounded=0;whiteSpace=wrap;html=1;fontSize=18;align=center;fontStyle=1" vertex="1" parent="yVIniye5_wfXDYpnEdnF-1">
          <mxGeometry x="650" y="245" width="190" height="40" as="geometry" />
        </mxCell>
        <mxCell id="U0I4Y9HCIqqXa3ABBWWh-34" value="posts = []" style="rounded=0;whiteSpace=wrap;html=1;fontSize=18;align=center;fontStyle=1" vertex="1" parent="yVIniye5_wfXDYpnEdnF-1">
          <mxGeometry x="650" y="540" width="190" height="40" as="geometry" />
        </mxCell>
      </root>
    </mxGraphModel>
  </diagram>
</mxfile>
